<svg width="16" height="16" viewBox="0 0 16 16" fill="none" xmlns="http://www.w3.org/2000/svg">
<path d="M8.19541 3.52869C8.32043 3.40371 8.48997 3.3335 8.66675 3.3335C8.84352 3.3335 9.01306 3.40371 9.13808 3.52869L13.1381 7.52869C13.2631 7.65371 13.3333 7.82324 13.3333 8.00002C13.3333 8.1768 13.2631 8.34634 13.1381 8.47135L9.13808 12.4714C9.01235 12.5928 8.84395 12.66 8.66915 12.6585C8.49435 12.657 8.32714 12.5868 8.20354 12.4632C8.07993 12.3396 8.00982 12.1724 8.0083 11.9976C8.00678 11.8228 8.07398 11.6544 8.19541 11.5287L11.0574 8.66669H3.33341C3.1566 8.66669 2.98703 8.59645 2.86201 8.47143C2.73699 8.3464 2.66675 8.17683 2.66675 8.00002C2.66675 7.82321 2.73699 7.65364 2.86201 7.52862C2.98703 7.40359 3.1566 7.33335 3.33341 7.33335H11.0574L8.19541 4.47135C8.07043 4.34634 8.00022 4.1768 8.00022 4.00002C8.00022 3.82324 8.07043 3.65371 8.19541 3.52869Z" fill="#17110F"/>
</svg>
