<svg width="100" height="21" viewBox="0 0 100 21" fill="none" xmlns="http://www.w3.org/2000/svg">
<path d="M5.92424 2H1.5L4.65152 11H9.01515L4.95455 20H9.62121L14.6515 11H15.3182L21.0758 20H25.5L20.8939 11L16.5303 10.7692L21.0758 2H16.6515L10.8939 11H10.1667L5.92424 2Z" fill="#2F2B2C" stroke="#2F2B2C"/>
<path d="M34.142 17.18C32.948 17.18 31.922 16.907 31.064 16.361C30.212 15.809 29.555 15.029 29.093 14.021C28.637 13.007 28.409 11.804 28.409 10.412C28.409 9.026 28.637 7.841 29.093 6.857C29.549 5.873 30.203 5.12 31.055 4.598C31.913 4.07 32.942 3.806 34.142 3.806C35.096 3.806 35.942 4.001 36.68 4.391C37.418 4.775 38.012 5.297 38.462 5.957C38.918 6.617 39.188 7.352 39.272 8.162H36.959C36.869 7.682 36.701 7.253 36.455 6.875C36.215 6.497 35.897 6.197 35.501 5.975C35.105 5.753 34.631 5.642 34.079 5.642C33.389 5.642 32.801 5.807 32.315 6.137C31.835 6.461 31.466 6.977 31.208 7.685C30.956 8.393 30.83 9.311 30.83 10.439C30.83 12.149 31.112 13.394 31.676 14.174C32.24 14.954 33.041 15.344 34.079 15.344C34.631 15.344 35.105 15.224 35.501 14.984C35.897 14.738 36.215 14.414 36.455 14.012C36.701 13.604 36.869 13.16 36.959 12.68H39.272C39.2 13.268 39.05 13.832 38.822 14.372C38.6 14.912 38.285 15.395 37.877 15.821C37.469 16.241 36.956 16.574 36.338 16.82C35.726 17.06 34.994 17.18 34.142 17.18ZM46.9328 17.18C45.7328 17.18 44.6948 16.916 43.8188 16.388C42.9488 15.86 42.2738 15.098 41.7938 14.102C41.3198 13.106 41.0828 11.912 41.0828 10.52C41.0828 9.116 41.3228 7.913 41.8028 6.911C42.2828 5.909 42.9608 5.141 43.8368 4.607C44.7188 4.073 45.7508 3.806 46.9328 3.806C48.1148 3.806 49.1378 4.073 50.0018 4.607C50.8718 5.141 51.5438 5.909 52.0178 6.911C52.4918 7.913 52.7288 9.116 52.7288 10.52C52.7288 11.912 52.4948 13.106 52.0268 14.102C51.5588 15.092 50.8898 15.854 50.0198 16.388C49.1498 16.916 48.1208 17.18 46.9328 17.18ZM46.9328 15.344C47.6408 15.344 48.2498 15.179 48.7598 14.849C49.2698 14.513 49.6598 13.994 49.9298 13.292C50.2058 12.584 50.3438 11.669 50.3438 10.547C50.3438 9.407 50.2058 8.477 49.9298 7.757C49.6538 7.031 49.2608 6.497 48.7508 6.155C48.2408 5.813 47.6348 5.642 46.9328 5.642C46.2248 5.642 45.6128 5.816 45.0968 6.164C44.5868 6.506 44.1908 7.04 43.9088 7.766C43.6268 8.486 43.4858 9.413 43.4858 10.547C43.4858 11.669 43.6268 12.584 43.9088 13.292C44.1908 13.994 44.5868 14.513 45.0968 14.849C45.6128 15.179 46.2248 15.344 46.9328 15.344ZM60.1658 17.18C59.0018 17.18 57.9908 16.913 57.1328 16.379C56.2748 15.845 55.6148 15.083 55.1528 14.093C54.6908 13.097 54.4598 11.909 54.4598 10.529C54.4598 9.137 54.6998 7.937 55.1798 6.929C55.6598 5.921 56.3348 5.15 57.2048 4.616C58.0808 4.076 59.1068 3.806 60.2828 3.806C61.0028 3.806 61.6658 3.926 62.2718 4.166C62.8838 4.406 63.4178 4.73 63.8738 5.138C64.3358 5.546 64.6988 6.011 64.9628 6.533C65.2268 7.055 65.3738 7.598 65.4038 8.162H63.0908C63.0068 7.718 62.8358 7.31 62.5778 6.938C62.3258 6.56 61.9988 6.257 61.5968 6.029C61.2008 5.801 60.7478 5.687 60.2378 5.687C59.5838 5.687 58.9988 5.852 58.4828 6.182C57.9728 6.512 57.5708 7.031 57.2768 7.739C56.9888 8.441 56.8448 9.353 56.8448 10.475C56.8448 11.363 56.9348 12.113 57.1148 12.725C57.3008 13.331 57.5528 13.82 57.8708 14.192C58.1948 14.558 58.5668 14.825 58.9868 14.993C59.4068 15.155 59.8508 15.236 60.3188 15.236C60.7748 15.236 61.1768 15.158 61.5248 15.002C61.8728 14.846 62.1668 14.642 62.4068 14.39C62.6528 14.138 62.8418 13.868 62.9738 13.58C63.1118 13.286 63.1928 13.001 63.2168 12.725L63.2978 11.771H60.3908V10.223L65.5838 10.241V17H64.0358V15.173C63.8138 15.503 63.5318 15.821 63.1898 16.127C62.8538 16.433 62.4398 16.685 61.9478 16.883C61.4618 17.081 60.8678 17.18 60.1658 17.18ZM68.573 17V3.986H70.715L77.087 13.283V3.986H79.274V17H77.303L70.76 7.451V17H68.573ZM82.4246 17V3.986H84.6116V17H82.4246ZM86.8054 17L91.1704 10.376L86.9494 3.986H89.6494L92.5384 8.54L95.4094 3.986H97.7674L93.6904 10.115L98.2534 17H95.5354L92.3314 11.996L89.1814 17H86.8054Z" fill="#2F2B2C"/>
</svg>
