<svg width="28" height="28" viewBox="0 0 28 28" fill="none" xmlns="http://www.w3.org/2000/svg">
<path d="M11.5 5V8.7C11.5 8.98003 11.5 9.12004 11.4455 9.227C11.3976 9.32108 11.3211 9.39757 11.227 9.4455C11.12 9.5 10.98 9.5 10.7 9.5H7M11 13H17M11 16H15M11 19H17M21 8.2V19.8C21 20.9201 21 21.4802 20.782 21.908C20.5903 22.2843 20.2843 22.5903 19.908 22.782C19.4802 23 18.9201 23 17.8 23H10.2C9.0799 23 8.51984 23 8.09202 22.782C7.71569 22.5903 7.40973 22.2843 7.21799 21.908C7 21.4802 7 20.9201 7 19.8V9.58904C7 9.18829 7 8.98791 7.04873 8.80143C7.09191 8.63617 7.163 8.4795 7.25894 8.33818C7.36719 8.17871 7.51799 8.04676 7.81959 7.78286L10.3214 5.59382C10.5725 5.37408 10.698 5.26422 10.8403 5.18592C10.9664 5.11647 11.102 5.06556 11.2426 5.03474C11.4012 5 11.5681 5 11.9018 5H17.8C18.9201 5 19.4802 5 19.908 5.21799C20.2843 5.40973 20.5903 5.71569 20.782 6.09202C21 6.51984 21 7.0799 21 8.2Z" stroke="black" stroke-width="1.5" stroke-linecap="round" stroke-linejoin="round"/>
</svg>
