<svg width="28" height="28" viewBox="0 0 28 28" fill="none" xmlns="http://www.w3.org/2000/svg">
<path d="M8 19V14.2C8 13.0799 8 12.5198 8.21799 12.092C8.40973 11.7157 8.71569 11.4097 9.09202 11.218C9.51984 11 10.0799 11 11.2 11H19.8C20.9201 11 21.4802 11 21.908 11.218C22.2843 11.4097 22.5903 11.7157 22.782 12.092C23 12.5198 23 13.0799 23 14.2V15.5714M19.8 21H9.2C8.0799 21 7.51984 21 7.09202 20.782C6.71569 20.5903 6.40973 20.2843 6.21799 19.908C6 19.4802 6 18.9201 6 17.8V10.2C6 9.0799 6 8.51984 6.21799 8.09202C6.40973 7.71569 6.71569 7.40973 7.09202 7.21799C7.51984 7 8.0799 7 9.2 7H12.2414C12.5453 7 12.6972 7 12.8359 7.04094C12.9586 7.07719 13.0733 7.13667 13.1736 7.21616C13.2869 7.30592 13.3744 7.43014 13.5494 7.67857L14.022 8.34939C14.197 8.59781 14.2845 8.72203 14.3978 8.81179C14.4981 8.89128 14.6128 8.95076 14.7356 8.98701C14.8742 9.02795 15.0261 9.02795 15.33 9.02795H19.8C20.9201 9.02795 21.4802 9.02795 21.908 9.24594C22.2843 9.43768 22.5903 9.74365 22.782 10.12C23 10.5478 23 11.1078 23 12.2279V17.8C23 18.9201 23 19.4802 22.782 19.908C22.5903 20.2843 22.2843 20.5903 21.908 20.782C21.4802 21 20.9201 21 19.8 21Z" stroke="black" stroke-width="1.5" stroke-linecap="round" stroke-linejoin="round"/>
</svg>
