<svg width="28" height="28" viewBox="0 0 28 28" fill="none" xmlns="http://www.w3.org/2000/svg">
<g clip-path="url(#clip0_85_2679)">
<path d="M11.75 21.5C12.1642 21.5 12.5 21.1642 12.5 20.75C12.5 20.3358 12.1642 20 11.75 20C11.3358 20 11 20.3358 11 20.75C11 21.1642 11.3358 21.5 11.75 21.5Z" stroke="black" stroke-width="1.5" stroke-linecap="round" stroke-linejoin="round"/>
<path d="M20 21.5C20.4142 21.5 20.75 21.1642 20.75 20.75C20.75 20.3358 20.4142 20 20 20C19.5858 20 19.25 20.3358 19.25 20.75C19.25 21.1642 19.5858 21.5 20 21.5Z" stroke="black" stroke-width="1.5" stroke-linecap="round" stroke-linejoin="round"/>
<path d="M5.75 5.75H8.75L10.76 15.7925C10.8286 16.1378 11.0164 16.448 11.2907 16.6687C11.5649 16.8895 11.908 17.0067 12.26 17H19.55C19.902 17.0067 20.2451 16.8895 20.5193 16.6687C20.7936 16.448 20.9814 16.1378 21.05 15.7925L22.25 9.5H9.5" stroke="black" stroke-width="1.5" stroke-linecap="round" stroke-linejoin="round"/>
</g>
<defs>
<clipPath id="clip0_85_2679">
<rect width="18" height="18" fill="white" transform="translate(5 5)"/>
</clipPath>
</defs>
</svg>
