<svg width="28" height="28" viewBox="0 0 28 28" fill="none" xmlns="http://www.w3.org/2000/svg">
<path d="M7 12.119C7 11.5135 7 11.2108 7.08132 10.9344C7.15333 10.6897 7.27151 10.461 7.42947 10.2606C7.60786 10.0344 7.85476 9.85924 8.34856 9.50896L12.1486 6.81339C12.815 6.34062 13.1483 6.10423 13.5114 6.01275C13.8321 5.93195 14.1679 5.93195 14.4886 6.01275C14.8517 6.10423 15.185 6.34062 15.8514 6.81339L19.6514 9.50896C20.1452 9.85924 20.3921 10.0344 20.5705 10.2606C20.7285 10.461 20.8467 10.6897 20.9187 10.9344C21 11.2108 21 11.5135 21 12.119V18.3001C21 19.4202 21 19.9802 20.782 20.408C20.5903 20.7844 20.2843 21.0903 19.908 21.2821C19.4802 21.5001 18.9201 21.5001 17.8 21.5001H10.2C9.0799 21.5001 8.51984 21.5001 8.09202 21.2821C7.71569 21.0903 7.40973 20.7844 7.21799 20.408C7 19.9802 7 19.4202 7 18.3001V12.119Z" stroke="black" stroke-width="1.5" stroke-linecap="round" stroke-linejoin="round"/>
<path d="M14 16V15.99" stroke="black" stroke-width="2.5" stroke-linecap="round" stroke-linejoin="round"/>
</svg>
