<svg width="16" height="16" viewBox="0 0 16 16" fill="none" xmlns="http://www.w3.org/2000/svg">
<path d="M6.66671 2.66655C5.60584 2.66655 4.58843 3.08798 3.83828 3.83813C3.08813 4.58827 2.66671 5.60569 2.66671 6.66656C2.66671 7.72742 3.08813 8.74484 3.83828 9.49498C4.58843 10.2451 5.60584 10.6666 6.66671 10.6666C7.72757 10.6666 8.74499 10.2451 9.49513 9.49498C10.2453 8.74484 10.6667 7.72742 10.6667 6.66656C10.6667 5.60569 10.2453 4.58827 9.49513 3.83813C8.74499 3.08798 7.72757 2.66655 6.66671 2.66655ZM1.33337 6.66656C1.3335 5.8178 1.53619 4.98132 1.9246 4.22665C2.31301 3.47198 2.87593 2.82091 3.56658 2.32754C4.25722 1.83418 5.05564 1.51278 5.89548 1.39004C6.73532 1.26731 7.59232 1.34678 8.39527 1.62187C9.19821 1.89696 9.92391 2.35971 10.512 2.97167C11.1002 3.58362 11.5338 4.32711 11.7768 5.14034C12.0198 5.95357 12.0652 6.81305 11.9092 7.64736C11.7533 8.48167 11.4004 9.2667 10.88 9.93722L14.4714 13.5286C14.5928 13.6543 14.66 13.8227 14.6585 13.9975C14.657 14.1723 14.5869 14.3395 14.4633 14.4631C14.3396 14.5867 14.1724 14.6568 13.9976 14.6583C13.8228 14.6599 13.6544 14.5927 13.5287 14.4712L9.93737 10.8799C9.14901 11.492 8.20472 11.8705 7.21188 11.9725C6.21905 12.0746 5.2175 11.896 4.32114 11.457C3.42478 11.0181 2.66957 10.3364 2.14139 9.48955C1.61321 8.64269 1.33326 7.66462 1.33337 6.66656Z" fill="#A0A8AC"/>
</svg>
