<svg width="101" height="28" viewBox="0 0 101 28" fill="none" xmlns="http://www.w3.org/2000/svg">
<path d="M10.5 25.6666C11.1443 25.6666 11.6666 25.1442 11.6666 24.4999C11.6666 23.8556 11.1443 23.3333 10.5 23.3333C9.85565 23.3333 9.33331 23.8556 9.33331 24.4999C9.33331 25.1442 9.85565 25.6666 10.5 25.6666Z" stroke="#434343" stroke-width="2" stroke-linecap="round" stroke-linejoin="round"/>
<path d="M23.3334 25.6666C23.9777 25.6666 24.5 25.1442 24.5 24.4999C24.5 23.8556 23.9777 23.3333 23.3334 23.3333C22.689 23.3333 22.1667 23.8556 22.1667 24.4999C22.1667 25.1442 22.689 25.6666 23.3334 25.6666Z" stroke="#434343" stroke-width="2" stroke-linecap="round" stroke-linejoin="round"/>
<path d="M1.16669 1.16675H5.83335L8.96002 16.7884C9.06671 17.3255 9.35891 17.808 9.78549 18.1514C10.2121 18.4948 10.7458 18.6772 11.2934 18.6667H22.6334C23.1809 18.6772 23.7146 18.4948 24.1412 18.1514C24.5678 17.808 24.86 17.3255 24.9667 16.7884L26.8334 7.00008H7.00002" stroke="#434343" stroke-width="2" stroke-linecap="round" stroke-linejoin="round"/>
<path d="M45.632 20.16C45.056 20.16 44.4933 20.088 43.944 19.944C43.3947 19.8 42.8933 19.584 42.44 19.296C41.9867 19.008 41.6133 18.648 41.32 18.216C41.032 17.784 40.8587 17.2773 40.8 16.696H43.192C43.272 17.048 43.424 17.344 43.648 17.584C43.8773 17.824 44.1707 18.008 44.528 18.136C44.8907 18.264 45.304 18.328 45.768 18.328C46.136 18.328 46.4853 18.2747 46.816 18.168C47.1467 18.0613 47.416 17.8987 47.624 17.68C47.832 17.4613 47.936 17.1867 47.936 16.856C47.936 16.4613 47.792 16.1653 47.504 15.968C47.216 15.7653 46.824 15.6053 46.328 15.488L44.16 15.016C43.5467 14.888 43.0107 14.6907 42.552 14.424C42.0987 14.152 41.7493 13.8 41.504 13.368C41.2587 12.9307 41.136 12.4 41.136 11.776C41.136 11.056 41.3333 10.4347 41.728 9.912C42.128 9.38933 42.6693 8.98933 43.352 8.712C44.04 8.42933 44.8107 8.288 45.664 8.288C46.6293 8.288 47.4427 8.44533 48.104 8.76C48.7707 9.06933 49.28 9.49067 49.632 10.024C49.984 10.552 50.1627 11.1413 50.168 11.792H47.832C47.7893 11.392 47.6667 11.072 47.464 10.832C47.2613 10.5867 47 10.4107 46.68 10.304C46.3653 10.192 46.0053 10.136 45.6 10.136C44.9013 10.136 44.392 10.2773 44.072 10.56C43.752 10.8427 43.592 11.1707 43.592 11.544C43.592 11.896 43.712 12.1813 43.952 12.4C44.1973 12.6133 44.5893 12.776 45.128 12.888L47.136 13.32C47.8827 13.464 48.488 13.6933 48.952 14.008C49.416 14.3173 49.7547 14.6933 49.968 15.136C50.1813 15.5787 50.288 16.0747 50.288 16.624C50.288 17.3227 50.088 17.9387 49.688 18.472C49.2933 19 48.7467 19.4133 48.048 19.712C47.3493 20.0107 46.544 20.16 45.632 20.16ZM55.7844 20.16C54.963 20.16 54.2404 19.9893 53.6164 19.648C52.9977 19.3013 52.515 18.8133 52.1684 18.184C51.8217 17.5547 51.6484 16.8133 51.6484 15.96C51.6484 15.1333 51.8057 14.3893 52.1204 13.728C52.4404 13.0613 52.899 12.536 53.4964 12.152C54.0937 11.7627 54.8164 11.568 55.6644 11.568C56.507 11.568 57.2137 11.7467 57.7844 12.104C58.355 12.456 58.787 12.9493 59.0804 13.584C59.3737 14.2133 59.5204 14.9413 59.5204 15.768V16.4H53.9604C53.9604 16.8213 54.0297 17.1893 54.1684 17.504C54.307 17.8133 54.507 18.0533 54.7684 18.224C55.035 18.3893 55.355 18.472 55.7284 18.472C56.1284 18.472 56.4777 18.3867 56.7764 18.216C57.075 18.0453 57.2857 17.7653 57.4084 17.376H59.5124C59.4164 17.9627 59.1817 18.464 58.8084 18.88C58.435 19.296 57.9817 19.6133 57.4484 19.832C56.915 20.0507 56.3604 20.16 55.7844 20.16ZM53.9604 15.008H57.3364C57.3364 14.6773 57.2724 14.3733 57.1444 14.096C57.0217 13.8187 56.835 13.6 56.5844 13.44C56.339 13.28 56.0297 13.2 55.6564 13.2C55.299 13.2 54.9924 13.288 54.7364 13.464C54.4857 13.6347 54.291 13.8587 54.1524 14.136C54.019 14.4133 53.955 14.704 53.9604 15.008ZM63.8431 20.144C63.2351 20.144 62.7525 20.072 62.3951 19.928C62.0378 19.784 61.7738 19.5947 61.6031 19.36C61.4325 19.12 61.3231 18.856 61.2751 18.568C61.2271 18.2747 61.2031 17.9787 61.2031 17.68V8.112H63.4911V17.392C63.4911 17.696 63.5551 17.944 63.6831 18.136C63.8165 18.3227 64.0645 18.4373 64.4271 18.48L64.8191 18.504V19.944C64.6591 19.9973 64.4965 20.0427 64.3311 20.08C64.1658 20.1227 64.0031 20.144 63.8431 20.144ZM68.8744 20.144C68.2664 20.144 67.7837 20.072 67.4264 19.928C67.069 19.784 66.805 19.5947 66.6344 19.36C66.4637 19.12 66.3544 18.856 66.3064 18.568C66.2584 18.2747 66.2344 17.9787 66.2344 17.68V8.112H68.5224V17.392C68.5224 17.696 68.5864 17.944 68.7144 18.136C68.8477 18.3227 69.0957 18.4373 69.4584 18.48L69.8504 18.504V19.944C69.6904 19.9973 69.5277 20.0427 69.3624 20.08C69.197 20.1227 69.0344 20.144 68.8744 20.144ZM73.9056 20.144C73.2976 20.144 72.815 20.072 72.4576 19.928C72.1003 19.784 71.8363 19.5947 71.6656 19.36C71.495 19.12 71.3856 18.856 71.3376 18.568C71.2896 18.2747 71.2656 17.9787 71.2656 17.68V8.112H73.5536V17.392C73.5536 17.696 73.6176 17.944 73.7456 18.136C73.879 18.3227 74.127 18.4373 74.4896 18.48L74.8816 18.504V19.944C74.7216 19.9973 74.559 20.0427 74.3936 20.08C74.2283 20.1227 74.0656 20.144 73.9056 20.144ZM78.9369 20.144C78.3289 20.144 77.8462 20.072 77.4889 19.928C77.1315 19.784 76.8675 19.5947 76.6969 19.36C76.5262 19.12 76.4169 18.856 76.3689 18.568C76.3209 18.2747 76.2969 17.9787 76.2969 17.68V8.112H78.5849V17.392C78.5849 17.696 78.6489 17.944 78.7769 18.136C78.9102 18.3227 79.1582 18.4373 79.5209 18.48L79.9129 18.504V19.944C79.7529 19.9973 79.5902 20.0427 79.4249 20.08C79.2595 20.1227 79.0969 20.144 78.9369 20.144ZM83.9681 20.144C83.3601 20.144 82.8775 20.072 82.5201 19.928C82.1628 19.784 81.8988 19.5947 81.7281 19.36C81.5575 19.12 81.4481 18.856 81.4001 18.568C81.3521 18.2747 81.3281 17.9787 81.3281 17.68V8.112H83.6161V17.392C83.6161 17.696 83.6801 17.944 83.8081 18.136C83.9415 18.3227 84.1895 18.4373 84.5521 18.48L84.9441 18.504V19.944C84.7841 19.9973 84.6215 20.0427 84.4561 20.08C84.2908 20.1227 84.1281 20.144 83.9681 20.144ZM89.9094 20.16C89.088 20.16 88.3654 19.9893 87.7414 19.648C87.1227 19.3013 86.64 18.8133 86.2934 18.184C85.9467 17.5547 85.7734 16.8133 85.7734 15.96C85.7734 15.1333 85.9307 14.3893 86.2454 13.728C86.5654 13.0613 87.024 12.536 87.6214 12.152C88.2187 11.7627 88.9414 11.568 89.7894 11.568C90.632 11.568 91.3387 11.7467 91.9094 12.104C92.48 12.456 92.912 12.9493 93.2054 13.584C93.4987 14.2133 93.6454 14.9413 93.6454 15.768V16.4H88.0854C88.0854 16.8213 88.1547 17.1893 88.2934 17.504C88.432 17.8133 88.632 18.0533 88.8934 18.224C89.16 18.3893 89.48 18.472 89.8534 18.472C90.2534 18.472 90.6027 18.3867 90.9014 18.216C91.2 18.0453 91.4107 17.7653 91.5334 17.376H93.6374C93.5414 17.9627 93.3067 18.464 92.9334 18.88C92.56 19.296 92.1067 19.6133 91.5734 19.832C91.04 20.0507 90.4854 20.16 89.9094 20.16ZM88.0854 15.008H91.4614C91.4614 14.6773 91.3974 14.3733 91.2694 14.096C91.1467 13.8187 90.96 13.6 90.7094 13.44C90.464 13.28 90.1547 13.2 89.7814 13.2C89.424 13.2 89.1174 13.288 88.8614 13.464C88.6107 13.6347 88.416 13.8587 88.2774 14.136C88.144 14.4133 88.08 14.704 88.0854 15.008ZM95.3281 20V11.728H97.5761V13.688C97.7095 13.2667 97.8961 12.8987 98.1361 12.584C98.3815 12.264 98.6775 12.016 99.0241 11.84C99.3708 11.6587 99.7628 11.568 100.2 11.568C100.275 11.568 100.344 11.5733 100.408 11.584C100.477 11.5893 100.528 11.6 100.56 11.616V13.84C100.512 13.8187 100.453 13.8053 100.384 13.8C100.32 13.7947 100.261 13.7893 100.208 13.784C99.7495 13.7467 99.3575 13.76 99.0321 13.824C98.7068 13.888 98.4428 13.9973 98.2401 14.152C98.0375 14.3067 97.8908 14.496 97.8001 14.72C97.7095 14.944 97.6641 15.1947 97.6641 15.472V20H95.3281Z" fill="#434343"/>
</svg>
